<svg xmlns="http://www.w3.org/2000/svg" viewBox="0 0 32 32" shape-rendering="crispEdges"><rect x="0" y="0" width="1" height="1" fill="#1c202e"/><rect x="1" y="0" width="6" height="1" fill="#12141e"/><rect x="7" y="0" width="1" height="1" fill="#1c202e"/><rect x="8" y="0" width="6" height="1" fill="#12141e"/><rect x="14" y="0" width="1" height="1" fill="#1c202e"/><rect x="15" y="0" width="6" height="1" fill="#12141e"/><rect x="21" y="0" width="1" height="1" fill="#1c202e"/><rect x="22" y="0" width="6" height="1" fill="#12141e"/><rect x="28" y="0" width="1" height="1" fill="#1c202e"/><rect x="29" y="0" width="3" height="1" fill="#12141e"/><rect x="0" y="1" width="6" height="1" fill="#12141e"/><rect x="6" y="1" width="1" height="1" fill="#1c202e"/><rect x="7" y="1" width="6" height="1" fill="#12141e"/><rect x="13" y="1" width="1" height="1" fill="#1c202e"/><rect x="14" y="1" width="6" height="1" fill="#12141e"/><rect x="20" y="1" width="1" height="1" fill="#1c202e"/><rect x="21" y="1" width="6" height="1" fill="#12141e"/><rect x="27" y="1" width="1" height="1" fill="#1c202e"/><rect x="28" y="1" width="4" height="1" fill="#12141e"/><rect x="0" y="2" width="5" height="1" fill="#12141e"/><rect x="5" y="2" width="1" height="1" fill="#1c202e"/><rect x="6" y="2" width="6" height="1" fill="#12141e"/><rect x="12" y="2" width="1" height="1" fill="#1c202e"/><rect x="13" y="2" width="6" height="1" fill="#12141e"/><rect x="19" y="2" width="1" height="1" fill="#1c202e"/><rect x="20" y="2" width="6" height="1" fill="#12141e"/><rect x="26" y="2" width="1" height="1" fill="#1c202e"/><rect x="27" y="2" width="5" height="1" fill="#12141e"/><rect x="0" y="3" width="4" height="1" fill="#12141e"/><rect x="4" y="3" width="1" height="1" fill="#1c202e"/><rect x="5" y="3" width="6" height="1" fill="#12141e"/><rect x="11" y="3" width="1" height="1" fill="#1c202e"/><rect x="12" y="3" width="6" height="1" fill="#12141e"/><rect x="18" y="3" width="1" height="1" fill="#1c202e"/><rect x="19" y="3" width="6" height="1" fill="#12141e"/><rect x="25" y="3" width="1" height="1" fill="#1c202e"/><rect x="26" y="3" width="6" height="1" fill="#12141e"/><rect x="0" y="4" width="3" height="1" fill="#12141e"/><rect x="3" y="4" width="1" height="1" fill="#1c202e"/><rect x="4" y="4" width="6" height="1" fill="#12141e"/><rect x="10" y="4" width="1" height="1" fill="#1c202e"/><rect x="11" y="4" width="3" height="1" fill="#08090e"/><rect x="14" y="4" width="4" height="1" fill="#ffe180"/><rect x="18" y="4" width="3" height="1" fill="#08090e"/><rect x="21" y="4" width="3" height="1" fill="#12141e"/><rect x="24" y="4" width="1" height="1" fill="#1c202e"/><rect x="25" y="4" width="6" height="1" fill="#12141e"/><rect x="31" y="4" width="1" height="1" fill="#1c202e"/><rect x="0" y="5" width="2" height="1" fill="#12141e"/><rect x="2" y="5" width="1" height="1" fill="#1c202e"/><rect x="3" y="5" width="6" height="1" fill="#12141e"/><rect x="9" y="5" width="1" height="1" fill="#1c202e"/><rect x="10" y="5" width="2" height="1" fill="#08090e"/><rect x="12" y="5" width="8" height="1" fill="#ffca57"/><rect x="20" y="5" width="2" height="1" fill="#08090e"/><rect x="22" y="5" width="1" height="1" fill="#12141e"/><rect x="23" y="5" width="1" height="1" fill="#1c202e"/><rect x="24" y="5" width="6" height="1" fill="#12141e"/><rect x="30" y="5" width="1" height="1" fill="#1c202e"/><rect x="31" y="5" width="1" height="1" fill="#12141e"/><rect x="0" y="6" width="1" height="1" fill="#12141e"/><rect x="1" y="6" width="1" height="1" fill="#1c202e"/><rect x="2" y="6" width="6" height="1" fill="#12141e"/><rect x="8" y="6" width="1" height="1" fill="#1c202e"/><rect x="9" y="6" width="2" height="1" fill="#08090e"/><rect x="11" y="6" width="10" height="1" fill="#ffca57"/><rect x="21" y="6" width="2" height="1" fill="#08090e"/><rect x="23" y="6" width="6" height="1" fill="#12141e"/><rect x="29" y="6" width="1" height="1" fill="#1c202e"/><rect x="30" y="6" width="2" height="1" fill="#12141e"/><rect x="0" y="7" width="1" height="1" fill="#1c202e"/><rect x="1" y="7" width="6" height="1" fill="#12141e"/><rect x="7" y="7" width="1" height="1" fill="#1c202e"/><rect x="8" y="7" width="2" height="1" fill="#08090e"/><rect x="10" y="7" width="12" height="1" fill="#ffca57"/><rect x="22" y="7" width="2" height="1" fill="#08090e"/><rect x="24" y="7" width="4" height="1" fill="#12141e"/><rect x="28" y="7" width="1" height="1" fill="#1c202e"/><rect x="29" y="7" width="3" height="1" fill="#12141e"/><rect x="0" y="8" width="6" height="1" fill="#12141e"/><rect x="6" y="8" width="1" height="1" fill="#1c202e"/><rect x="7" y="8" width="2" height="1" fill="#08090e"/><rect x="9" y="8" width="14" height="1" fill="#ffca57"/><rect x="23" y="8" width="2" height="1" fill="#08090e"/><rect x="25" y="8" width="2" height="1" fill="#12141e"/><rect x="27" y="8" width="1" height="1" fill="#1c202e"/><rect x="28" y="8" width="4" height="1" fill="#12141e"/><rect x="0" y="9" width="5" height="1" fill="#12141e"/><rect x="5" y="9" width="1" height="1" fill="#1c202e"/><rect x="6" y="9" width="2" height="1" fill="#12141e"/><rect x="8" y="9" width="2" height="1" fill="#08090e"/><rect x="10" y="9" width="10" height="1" fill="#e88e32"/><rect x="20" y="9" width="2" height="1" fill="#ffca57"/><rect x="22" y="9" width="2" height="1" fill="#08090e"/><rect x="24" y="9" width="2" height="1" fill="#12141e"/><rect x="26" y="9" width="1" height="1" fill="#1c202e"/><rect x="27" y="9" width="5" height="1" fill="#12141e"/><rect x="0" y="10" width="4" height="1" fill="#12141e"/><rect x="4" y="10" width="1" height="1" fill="#1c202e"/><rect x="5" y="10" width="4" height="1" fill="#12141e"/><rect x="9" y="10" width="7" height="1" fill="#08090e"/><rect x="16" y="10" width="1" height="1" fill="#e88e32"/><rect x="17" y="10" width="6" height="1" fill="#08090e"/><rect x="23" y="10" width="2" height="1" fill="#12141e"/><rect x="25" y="10" width="1" height="1" fill="#1c202e"/><rect x="26" y="10" width="6" height="1" fill="#12141e"/><rect x="0" y="11" width="3" height="1" fill="#12141e"/><rect x="3" y="11" width="1" height="1" fill="#1c202e"/><rect x="4" y="11" width="6" height="1" fill="#12141e"/><rect x="10" y="11" width="1" height="1" fill="#1c202e"/><rect x="11" y="11" width="3" height="1" fill="#12141e"/><rect x="14" y="11" width="1" height="1" fill="#514631"/><rect x="15" y="11" width="1" height="1" fill="#08090e"/><rect x="16" y="11" width="1" height="1" fill="#e88e32"/><rect x="17" y="11" width="1" height="1" fill="#594f3d"/><rect x="18" y="11" width="6" height="1" fill="#12141e"/><rect x="24" y="11" width="1" height="1" fill="#1c202e"/><rect x="25" y="11" width="6" height="1" fill="#12141e"/><rect x="31" y="11" width="1" height="1" fill="#1c202e"/><rect x="0" y="12" width="2" height="1" fill="#12141e"/><rect x="2" y="12" width="1" height="1" fill="#1c202e"/><rect x="3" y="12" width="6" height="1" fill="#12141e"/><rect x="9" y="12" width="1" height="1" fill="#1c202e"/><rect x="10" y="12" width="3" height="1" fill="#12141e"/><rect x="13" y="12" width="2" height="1" fill="#514631"/><rect x="15" y="12" width="1" height="1" fill="#08090e"/><rect x="16" y="12" width="1" height="1" fill="#e88e32"/><rect x="17" y="12" width="2" height="1" fill="#514631"/><rect x="19" y="12" width="4" height="1" fill="#12141e"/><rect x="23" y="12" width="1" height="1" fill="#1c202e"/><rect x="24" y="12" width="6" height="1" fill="#12141e"/><rect x="30" y="12" width="1" height="1" fill="#1c202e"/><rect x="31" y="12" width="1" height="1" fill="#12141e"/><rect x="0" y="13" width="1" height="1" fill="#12141e"/><rect x="1" y="13" width="1" height="1" fill="#1c202e"/><rect x="2" y="13" width="6" height="1" fill="#12141e"/><rect x="8" y="13" width="1" height="1" fill="#1c202e"/><rect x="9" y="13" width="4" height="1" fill="#12141e"/><rect x="13" y="13" width="2" height="1" fill="#514631"/><rect x="15" y="13" width="1" height="1" fill="#08090e"/><rect x="16" y="13" width="1" height="1" fill="#e88e32"/><rect x="17" y="13" width="2" height="1" fill="#514631"/><rect x="19" y="13" width="3" height="1" fill="#12141e"/><rect x="22" y="13" width="1" height="1" fill="#1c202e"/><rect x="23" y="13" width="6" height="1" fill="#12141e"/><rect x="29" y="13" width="1" height="1" fill="#1c202e"/><rect x="30" y="13" width="2" height="1" fill="#12141e"/><rect x="0" y="14" width="1" height="1" fill="#1c202e"/><rect x="1" y="14" width="6" height="1" fill="#12141e"/><rect x="7" y="14" width="1" height="1" fill="#1c202e"/><rect x="8" y="14" width="4" height="1" fill="#12141e"/><rect x="12" y="14" width="2" height="1" fill="#514631"/><rect x="14" y="14" width="1" height="1" fill="#594f3d"/><rect x="15" y="14" width="1" height="1" fill="#08090e"/><rect x="16" y="14" width="1" height="1" fill="#e88e32"/><rect x="17" y="14" width="3" height="1" fill="#514631"/><rect x="20" y="14" width="1" height="1" fill="#12141e"/><rect x="21" y="14" width="1" height="1" fill="#1c202e"/><rect x="22" y="14" width="6" height="1" fill="#12141e"/><rect x="28" y="14" width="1" height="1" fill="#1c202e"/><rect x="29" y="14" width="3" height="1" fill="#12141e"/><rect x="0" y="15" width="6" height="1" fill="#12141e"/><rect x="6" y="15" width="1" height="1" fill="#1c202e"/><rect x="7" y="15" width="5" height="1" fill="#12141e"/><rect x="12" y="15" width="1" height="1" fill="#514631"/><rect x="13" y="15" width="1" height="1" fill="#594f3d"/><rect x="14" y="15" width="1" height="1" fill="#514631"/><rect x="15" y="15" width="1" height="1" fill="#08090e"/><rect x="16" y="15" width="1" height="1" fill="#e88e32"/><rect x="17" y="15" width="3" height="1" fill="#514631"/><rect x="20" y="15" width="1" height="1" fill="#1c202e"/><rect x="21" y="15" width="6" height="1" fill="#12141e"/><rect x="27" y="15" width="1" height="1" fill="#1c202e"/><rect x="28" y="15" width="4" height="1" fill="#12141e"/><rect x="0" y="16" width="5" height="1" fill="#12141e"/><rect x="5" y="16" width="1" height="1" fill="#1c202e"/><rect x="6" y="16" width="5" height="1" fill="#12141e"/><rect x="11" y="16" width="1" height="1" fill="#514631"/><rect x="12" y="16" width="1" height="1" fill="#594f3d"/><rect x="13" y="16" width="2" height="1" fill="#514631"/><rect x="15" y="16" width="1" height="1" fill="#08090e"/><rect x="16" y="16" width="1" height="1" fill="#e88e32"/><rect x="17" y="16" width="2" height="1" fill="#514631"/><rect x="19" y="16" width="1" height="1" fill="#594f3d"/><rect x="20" y="16" width="1" height="1" fill="#514631"/><rect x="21" y="16" width="5" height="1" fill="#12141e"/><rect x="26" y="16" width="1" height="1" fill="#1c202e"/><rect x="27" y="16" width="5" height="1" fill="#12141e"/><rect x="0" y="17" width="4" height="1" fill="#12141e"/><rect x="4" y="17" width="1" height="1" fill="#1c202e"/><rect x="5" y="17" width="5" height="1" fill="#12141e"/><rect x="10" y="17" width="1" height="1" fill="#514631"/><rect x="11" y="17" width="1" height="1" fill="#594f3d"/><rect x="12" y="17" width="3" height="1" fill="#514631"/><rect x="15" y="17" width="1" height="1" fill="#08090e"/><rect x="16" y="17" width="1" height="1" fill="#e88e32"/><rect x="17" y="17" width="1" height="1" fill="#514631"/><rect x="18" y="17" width="1" height="1" fill="#594f3d"/><rect x="19" y="17" width="3" height="1" fill="#514631"/><rect x="22" y="17" width="3" height="1" fill="#12141e"/><rect x="25" y="17" width="1" height="1" fill="#1c202e"/><rect x="26" y="17" width="6" height="1" fill="#12141e"/><rect x="0" y="18" width="3" height="1" fill="#12141e"/><rect x="3" y="18" width="1" height="1" fill="#1c202e"/><rect x="4" y="18" width="6" height="1" fill="#12141e"/><rect x="10" y="18" width="1" height="1" fill="#594f3d"/><rect x="11" y="18" width="4" height="1" fill="#514631"/><rect x="15" y="18" width="1" height="1" fill="#08090e"/><rect x="16" y="18" width="1" height="1" fill="#e88e32"/><rect x="17" y="18" width="1" height="1" fill="#594f3d"/><rect x="18" y="18" width="4" height="1" fill="#514631"/><rect x="22" y="18" width="2" height="1" fill="#12141e"/><rect x="24" y="18" width="1" height="1" fill="#1c202e"/><rect x="25" y="18" width="6" height="1" fill="#12141e"/><rect x="31" y="18" width="1" height="1" fill="#1c202e"/><rect x="0" y="19" width="2" height="1" fill="#12141e"/><rect x="2" y="19" width="1" height="1" fill="#1c202e"/><rect x="3" y="19" width="6" height="1" fill="#12141e"/><rect x="9" y="19" width="1" height="1" fill="#594f3d"/><rect x="10" y="19" width="5" height="1" fill="#514631"/><rect x="15" y="19" width="1" height="1" fill="#08090e"/><rect x="16" y="19" width="1" height="1" fill="#e88e32"/><rect x="17" y="19" width="6" height="1" fill="#514631"/><rect x="23" y="19" width="1" height="1" fill="#1c202e"/><rect x="24" y="19" width="6" height="1" fill="#12141e"/><rect x="30" y="19" width="1" height="1" fill="#1c202e"/><rect x="31" y="19" width="1" height="1" fill="#12141e"/><rect x="0" y="20" width="1" height="1" fill="#12141e"/><rect x="1" y="20" width="1" height="1" fill="#1c202e"/><rect x="2" y="20" width="6" height="1" fill="#12141e"/><rect x="8" y="20" width="1" height="1" fill="#1c202e"/><rect x="9" y="20" width="6" height="1" fill="#514631"/><rect x="15" y="20" width="1" height="1" fill="#08090e"/><rect x="16" y="20" width="1" height="1" fill="#e88e32"/><rect x="17" y="20" width="5" height="1" fill="#514631"/><rect x="22" y="20" width="1" height="1" fill="#594f3d"/><rect x="23" y="20" width="6" height="1" fill="#12141e"/><rect x="29" y="20" width="1" height="1" fill="#1c202e"/><rect x="30" y="20" width="2" height="1" fill="#12141e"/><rect x="0" y="21" width="1" height="1" fill="#1c202e"/><rect x="1" y="21" width="6" height="1" fill="#12141e"/><rect x="7" y="21" width="1" height="1" fill="#1c202e"/><rect x="8" y="21" width="5" height="1" fill="#514631"/><rect x="13" y="21" width="1" height="1" fill="#08090e"/><rect x="14" y="21" width="4" height="1" fill="#ffca57"/><rect x="18" y="21" width="1" height="1" fill="#08090e"/><rect x="19" y="21" width="2" height="1" fill="#514631"/><rect x="21" y="21" width="1" height="1" fill="#594f3d"/><rect x="22" y="21" width="2" height="1" fill="#514631"/><rect x="24" y="21" width="4" height="1" fill="#12141e"/><rect x="28" y="21" width="1" height="1" fill="#1c202e"/><rect x="29" y="21" width="3" height="1" fill="#12141e"/><rect x="0" y="22" width="6" height="1" fill="#12141e"/><rect x="6" y="22" width="1" height="1" fill="#1c202e"/><rect x="7" y="22" width="1" height="1" fill="#12141e"/><rect x="8" y="22" width="4" height="1" fill="#514631"/><rect x="12" y="22" width="8" height="1" fill="#ffca57"/><rect x="20" y="22" width="1" height="1" fill="#594f3d"/><rect x="21" y="22" width="3" height="1" fill="#514631"/><rect x="24" y="22" width="3" height="1" fill="#12141e"/><rect x="27" y="22" width="1" height="1" fill="#1c202e"/><rect x="28" y="22" width="4" height="1" fill="#12141e"/><rect x="0" y="23" width="5" height="1" fill="#12141e"/><rect x="5" y="23" width="1" height="1" fill="#1c202e"/><rect x="6" y="23" width="1" height="1" fill="#12141e"/><rect x="7" y="23" width="2" height="1" fill="#514631"/><rect x="9" y="23" width="1" height="1" fill="#08090e"/><rect x="10" y="23" width="12" height="1" fill="#e88e32"/><rect x="22" y="23" width="1" height="1" fill="#08090e"/><rect x="23" y="23" width="2" height="1" fill="#514631"/><rect x="25" y="23" width="1" height="1" fill="#12141e"/><rect x="26" y="23" width="1" height="1" fill="#1c202e"/><rect x="27" y="23" width="5" height="1" fill="#12141e"/><rect x="0" y="24" width="4" height="1" fill="#12141e"/><rect x="4" y="24" width="1" height="1" fill="#1c202e"/><rect x="5" y="24" width="1" height="1" fill="#12141e"/><rect x="6" y="24" width="3" height="1" fill="#514631"/><rect x="9" y="24" width="1" height="1" fill="#08090e"/><rect x="10" y="24" width="12" height="1" fill="#e88e32"/><rect x="22" y="24" width="1" height="1" fill="#08090e"/><rect x="23" y="24" width="2" height="1" fill="#514631"/><rect x="25" y="24" width="1" height="1" fill="#594f3d"/><rect x="26" y="24" width="6" height="1" fill="#12141e"/><rect x="0" y="25" width="3" height="1" fill="#12141e"/><rect x="3" y="25" width="1" height="1" fill="#1c202e"/><rect x="4" y="25" width="2" height="1" fill="#12141e"/><rect x="6" y="25" width="3" height="1" fill="#514631"/><rect x="9" y="25" width="14" height="1" fill="#08090e"/><rect x="23" y="25" width="1" height="1" fill="#514631"/><rect x="24" y="25" width="1" height="1" fill="#594f3d"/><rect x="25" y="25" width="1" height="1" fill="#514631"/><rect x="26" y="25" width="5" height="1" fill="#12141e"/><rect x="31" y="25" width="1" height="1" fill="#1c202e"/><rect x="0" y="26" width="2" height="1" fill="#12141e"/><rect x="2" y="26" width="1" height="1" fill="#1c202e"/><rect x="3" y="26" width="2" height="1" fill="#12141e"/><rect x="5" y="26" width="4" height="1" fill="#514631"/><rect x="9" y="26" width="1" height="1" fill="#594f3d"/><rect x="10" y="26" width="6" height="1" fill="#514631"/><rect x="16" y="26" width="1" height="1" fill="#594f3d"/><rect x="17" y="26" width="6" height="1" fill="#514631"/><rect x="23" y="26" width="1" height="1" fill="#594f3d"/><rect x="24" y="26" width="3" height="1" fill="#514631"/><rect x="27" y="26" width="3" height="1" fill="#12141e"/><rect x="30" y="26" width="1" height="1" fill="#1c202e"/><rect x="31" y="26" width="1" height="1" fill="#12141e"/><rect x="0" y="27" width="1" height="1" fill="#12141e"/><rect x="1" y="27" width="1" height="1" fill="#1c202e"/><rect x="2" y="27" width="3" height="1" fill="#12141e"/><rect x="5" y="27" width="3" height="1" fill="#514631"/><rect x="8" y="27" width="1" height="1" fill="#594f3d"/><rect x="9" y="27" width="6" height="1" fill="#514631"/><rect x="15" y="27" width="1" height="1" fill="#594f3d"/><rect x="16" y="27" width="6" height="1" fill="#514631"/><rect x="22" y="27" width="1" height="1" fill="#594f3d"/><rect x="23" y="27" width="4" height="1" fill="#514631"/><rect x="27" y="27" width="2" height="1" fill="#12141e"/><rect x="29" y="27" width="1" height="1" fill="#1c202e"/><rect x="30" y="27" width="2" height="1" fill="#12141e"/><rect x="0" y="28" width="1" height="1" fill="#1c202e"/><rect x="1" y="28" width="6" height="1" fill="#12141e"/><rect x="7" y="28" width="1" height="1" fill="#1c202e"/><rect x="8" y="28" width="6" height="1" fill="#12141e"/><rect x="14" y="28" width="1" height="1" fill="#1c202e"/><rect x="15" y="28" width="6" height="1" fill="#12141e"/><rect x="21" y="28" width="1" height="1" fill="#1c202e"/><rect x="22" y="28" width="6" height="1" fill="#12141e"/><rect x="28" y="28" width="1" height="1" fill="#1c202e"/><rect x="29" y="28" width="3" height="1" fill="#12141e"/><rect x="0" y="29" width="6" height="1" fill="#12141e"/><rect x="6" y="29" width="1" height="1" fill="#1c202e"/><rect x="7" y="29" width="6" height="1" fill="#12141e"/><rect x="13" y="29" width="1" height="1" fill="#1c202e"/><rect x="14" y="29" width="6" height="1" fill="#12141e"/><rect x="20" y="29" width="1" height="1" fill="#1c202e"/><rect x="21" y="29" width="6" height="1" fill="#12141e"/><rect x="27" y="29" width="1" height="1" fill="#1c202e"/><rect x="28" y="29" width="4" height="1" fill="#12141e"/><rect x="0" y="30" width="5" height="1" fill="#12141e"/><rect x="5" y="30" width="1" height="1" fill="#1c202e"/><rect x="6" y="30" width="6" height="1" fill="#12141e"/><rect x="12" y="30" width="1" height="1" fill="#1c202e"/><rect x="13" y="30" width="6" height="1" fill="#12141e"/><rect x="19" y="30" width="1" height="1" fill="#1c202e"/><rect x="20" y="30" width="6" height="1" fill="#12141e"/><rect x="26" y="30" width="1" height="1" fill="#1c202e"/><rect x="27" y="30" width="5" height="1" fill="#12141e"/><rect x="0" y="31" width="4" height="1" fill="#12141e"/><rect x="4" y="31" width="1" height="1" fill="#1c202e"/><rect x="5" y="31" width="6" height="1" fill="#12141e"/><rect x="11" y="31" width="1" height="1" fill="#1c202e"/><rect x="12" y="31" width="6" height="1" fill="#12141e"/><rect x="18" y="31" width="1" height="1" fill="#1c202e"/><rect x="19" y="31" width="6" height="1" fill="#12141e"/><rect x="25" y="31" width="1" height="1" fill="#1c202e"/><rect x="26" y="31" width="6" height="1" fill="#12141e"/></svg>
